<svg width="173" height="24" viewBox="0 0 173 24" fill="none" xmlns="http://www.w3.org/2000/svg">
<path d="M14.7129 0H22.5527V23.3262H14.7656V13.8516H9V9.17578H14.7129V0ZM7.76953 23.3262H0V0H7.76953V23.3262Z" fill="white"/>
<path d="M33.8906 18.5801H36.8086V23.3262H30.832L26.1035 18.668V4.6582L30.832 0H36.8086V4.72852H33.8906V18.5801ZM41.0098 4.72852H38.0391V0H44.0684L48.7793 4.6582V18.668L44.0684 23.3262H38.0391V18.5801H41.0098V4.72852Z" fill="white"/>
<path d="M52.3828 23.3262V0H60.1523V23.3262H52.3828ZM61.3828 23.3262V18.668H65.2324V15.7148H72.2812V23.3262H61.3828Z" fill="white"/>
<path d="M74.6719 23.3262V0H82.4414V23.3262H74.6719ZM83.6719 23.3262V18.668H87.5215V15.7148H94.5703V23.3262H83.6719Z" fill="white"/>
<path d="M112.271 20.7773H104.643L106.26 16.1543H110.479L104.238 0H111.814L121.113 23.3262H113.256L112.271 20.7773ZM102.568 23.3262H95.0625L103.395 1.05469L106.84 10.3184L102.568 23.3262Z" fill="white"/>
<path d="M145.723 23.3262H137.461L123.328 0H131.537L145.723 23.3262ZM123.328 23.3262V2.21484L130.096 13.3066V23.3262H123.328ZM145.723 0V21.1113L138.955 9.9668V0H145.723Z" fill="white"/>
<path d="M158.836 23.3262V18.668H164.602V4.6582H158.836V0H167.713L172.389 4.6582V18.668L167.713 23.3262H158.836ZM149.836 0H157.605V23.3262H149.836V0Z" fill="white"/>
</svg>
